<?xml version="1.0" encoding="utf-8"?>
<!-- Generator: Adobe Illustrator 25.2.2, SVG Export Plug-In . SVG Version: 6.00 Build 0)  -->
<svg version="1.1" id="Capa_1" xmlns="http://www.w3.org/2000/svg" xmlns:xlink="http://www.w3.org/1999/xlink" x="0px" y="0px"
	 viewBox="0 0 3343.8 3457.2" style="enable-background:new 0 0 3343.8 3457.2;" xml:space="preserve">
<style type="text/css">
	.st0{fill:#F8AE47;}
</style>
<g>
	<g>
		<path class="st0" d="M2284.3,1722.4c-54.1-25.9-109.8-48-166.1-66.8c182.6-136.8,300.7-354.8,300.7-600.3
			c0-413.7-336.6-750.3-750.4-750.3s-750.3,336.6-750.3,750.4c0,245.5,118.6,464,301.2,600.8c-167.7,55.2-325,141.2-462.4,254.3
			c-252.1,207.5-427.5,497.2-493.7,815c-21,99.9,3.9,201.9,68.4,280.8c64,78.3,158.3,123.6,259.3,123.6h1358.9
			c60.7,0,110.3-49.7,110.3-110.3c0-60.7-49.7-110.3-110.3-110.3H591c-46.9,0-75.6-26.5-88.3-41.9c-22.1-27-30.3-62.3-23.2-96.6
			c114.8-550.1,599.7-951.7,1159.7-965.5c9.9,0.6,19.3,0.6,29.2,0.6s19.9,0,29.8-0.6c171.6,3.9,336.6,43,491,116.4
			c55.2,25.9,120.8,2.8,146.8-52.4C2362.6,1814.5,2338.9,1748.9,2284.3,1722.4z M1695.6,1584.5c-8.8,0-17.7,0-27,0
			c-8.8,0-17.7,0-26.5,0c-279.7-13.8-503.2-246.1-503.2-529.1c0-291.9,237.8-529.7,529.7-529.7s529.7,237.8,529.7,529.7
			C2198.2,1338.4,1975.3,1570.1,1695.6,1584.5z"/>
	</g>
</g>
<g>
	<g>
		<path class="st0" d="M2970.6,2495.4h-303.5v-303.5c0-60.7-49.7-110.3-110.3-110.3s-110.3,49.7-110.3,110.3v303.5H2143
			c-60.7,0-110.3,49.7-110.3,110.3S2082.4,2716,2143,2716h303.5v303.5c0,60.7,49.7,110.3,110.3,110.3s110.3-49.7,110.3-110.3V2716
			h303.5c60.7,0,110.3-49.7,110.3-110.3S3031.3,2495.4,2970.6,2495.4z"/>
	</g>
</g>
</svg>
