<?xml version="1.0" encoding="utf-8"?>
<!-- Generator: Adobe Illustrator 25.2.2, SVG Export Plug-In . SVG Version: 6.00 Build 0)  -->
<svg version="1.1" id="Calque_1" xmlns="http://www.w3.org/2000/svg" xmlns:xlink="http://www.w3.org/1999/xlink" x="0px" y="0px"
	 viewBox="0 0 3496.9 2185.9" style="enable-background:new 0 0 3496.9 2185.9;" xml:space="preserve">
<style type="text/css">
	.st0{display:none;}
	.st1{fill:#F8AE47;}
</style>
<g id="Gm5GmE_1_" class="st0">
</g>
<path class="st1" d="M2487.5,1577.2H961c-15.2,0-27.6-12.3-27.6-27.6s12.3-27.6,27.6-27.6h1526.5c15.2,0,27.6,12.3,27.6,27.6
	S2502.7,1577.2,2487.5,1577.2z"/>
<path class="st1" d="M2279.4,1442.2h-1118c-14.6,0-26.7-11.4-27.5-26.1c-0.6-10.9-12.6-268.2,156.5-447
	c102.4-108.3,248.3-163.3,433.8-163.5c284.5,0,428.1,166.3,498.6,305.8c75.1,148.8,83.9,295.5,84.2,301.6c0.4,7.6-2.3,15-7.5,20.4
	C2294.2,1439.1,2287,1442.2,2279.4,1442.2z M1188.9,1387.1h1060.1c-6.3-48.7-24.8-151.2-76.1-252.2
	c-92.4-181.9-243.3-274.1-448.6-274.1c-169.7,0.2-302.2,49.4-393.8,146.2C1207.1,1137.4,1190.6,1320,1188.9,1387.1z"/>
<path class="st1" d="M1871,878.7c-10.3,0-20.1-5.7-24.8-15.6c-25.8-53.5-56.5-83.6-77.7-99.4c-25.1-18.6-59-19.7-86.1-2.9
	c-56.3,34.9-64.8,85.9-65.1,88.1c-2.3,14.9-16.2,25.4-31.3,23.1c-15-2.2-25.4-15.9-23.3-30.9c0.4-3.2,11.6-78.1,90.6-127.1
	c46.4-28.9,104.5-26.8,148,5.4c38.1,28.4,69.9,68.6,94.5,119.7c6.6,13.7,0.8,30.2-12.9,36.8C1879,877.8,1875,878.7,1871,878.7z"/>
<path class="st1" d="M2566.7,1000.6c-15.2,0-27.6-12.3-27.6-27.6V597.7c0-15.2,12.3-27.6,27.6-27.6c15.2,0,27.6,12.3,27.6,27.6
	v375.4C2594.3,988.3,2581.9,1000.6,2566.7,1000.6z"/>
<path class="st1" d="M2754.8,813.3h-375.4c-15.2,0-27.6-12.3-27.6-27.6c0-15.2,12.3-27.6,27.6-27.6h375.4
	c15.2,0,27.6,12.3,27.6,27.6C2782.3,800.9,2770,813.3,2754.8,813.3z"/>
<path class="st1" d="M2566.7,1100.5c-173.6,0-314.8-141.2-314.8-314.8c0-173.6,141.2-314.8,314.8-314.8
	c173.6,0,314.8,141.2,314.8,314.8C2881.5,959.3,2740.3,1100.5,2566.7,1100.5z M2566.7,526c-143.2,0-259.7,116.5-259.7,259.7
	c0,143.2,116.5,259.7,259.7,259.7c143.2,0,259.7-116.5,259.7-259.7C2826.4,642.5,2709.9,526,2566.7,526z"/>
</svg>
