<?xml version="1.0" encoding="utf-8"?>
<!-- Generator: Adobe Illustrator 25.2.2, SVG Export Plug-In . SVG Version: 6.00 Build 0)  -->
<svg version="1.1" id="Calque_1" xmlns="http://www.w3.org/2000/svg" xmlns:xlink="http://www.w3.org/1999/xlink" x="0px" y="0px"
	 viewBox="0 0 3513.7 2260.9" style="enable-background:new 0 0 3513.7 2260.9;" xml:space="preserve">
<style type="text/css">
	.st0{fill:#F8AE47;}
</style>
<g>
	<path class="st0" d="M1874.6,1687.7c14.8,0,27-12.2,27-27v-143.3c98.3-88.7,154.2-214,154.2-346.3c0-158.1-78.4-302-209.5-388.7
		v-44.3c0-51.4-41.8-93.2-93.2-93.2c-42.4,0-77.1,28.3-88.7,66.8c-37.9-5.8-76.5-7.1-115-3.9c-28.9-39.2-64.9-66.2-102.8-66.2
		c-66.8,0-127.2,82.2-152.3,169.6c-67.5,55.9-118.2,128.5-145.9,211.4c-4.5,14.1,2.6,29.6,16.7,34.1c2.6,1.3,5.8,1.3,8.4,1.3
		c10.9,0,21.8-7.1,25.7-18c18-53.3,46.9-102.2,84.2-143.3c1.3,42.4,13.5,79,36.6,106c23.8,27,57.2,43.1,99.6,47.5v63.6
		c-37.9,11.6-66.2,46.9-66.2,88.7v305.2c-75.8-53.3-133-132.4-159.4-221.7c-3.9-14.1-19.3-22.5-33.4-18c-14.1,3.9-22.5,19.3-18,33.4
		c32.8,113.1,109.2,210.1,210.8,269.9v23.1c0,51.4,41.8,93.2,93.2,93.2c37.9,0,70-22.5,84.8-55.3c19.3,2.6,39.2,3.9,58.5,3.9
		c7.1,0,13.5,0,20.6-0.6v24.4c0,14.8,12.2,27,27,27s27-12.2,27-27v-209.5h64.9v209.5c0,14.8,12.2,27,27,27s27-12.2,27-27v-209.5
		h64.9v209.5C1848.3,1675.5,1859.8,1687.7,1874.6,1687.7z M2002.5,1171.1c0,100.2-36,195.3-100.9,269.9v-68.8
		c0-47.5-38.6-86.1-86.1-86.1h-35.3v-66.8c37.9-11.6,66.2-46.9,66.2-88.7V848.6C1945.3,926.3,2002.5,1043.3,2002.5,1171.1z
		 M1714,738.1c0-21.8,18-39.2,39.2-39.2c21.8,0,39.2,18,39.2,39.2v392.6c0,21.8-18,39.2-39.2,39.2c-21.8,0-39.2-18-39.2-39.2V738.1z
		 M1337.4,889.1c0-93.8,64.3-194.1,109.9-194.1c20.6,0,45.6,21.2,66.2,53.3c0,0.6,0.6,0.6,0.6,1.3c24.4,37.9,43.1,90,43.1,140.1
		c0,22.5-3.9,54-23.8,77.1c-18,20.6-46.9,30.8-85.5,30.8s-67.5-10.3-85.5-30.8C1341.3,943.7,1337.4,911.5,1337.4,889.1z
		 M1447.3,1633.8c-21.8,0-39.2-18-39.2-39.2V1202c0-21.8,18-39.2,39.2-39.2c21.8,0,39.2,18,39.2,39.2v392.6
		C1486.5,1616.4,1469.1,1633.8,1447.3,1633.8z M1540.5,1579.8V1202c0-41.8-28.3-77.1-66.2-88.7v-63.6c41.8-4.5,75.2-20.6,99.6-47.5
		c24.4-27.6,37.3-66.8,37.3-112.4c0-42.4-11.6-88.7-30.8-129.8c27-0.6,54,1.3,80.3,5.8v365c0,41.8,28.3,77.1,66.2,88.7v66.8h-29.6
		c-47.5,0-86.1,38.6-86.1,86.1V1583C1587.4,1583.7,1563.6,1582.4,1540.5,1579.8z M1665.1,1397.3v-25.7c0-18,14.8-32.1,32.1-32.1
		h118.9c18,0,32.1,14.8,32.1,32.1v25.7H1665.1z"/>
	<path class="st0" d="M1178.7,1171.1c0-5.8,0-11.6,0.6-17.3c0.6-14.8-10.9-27.6-25.7-28.3c-14.8-0.6-27.6,10.9-28.3,25.7
		c0,6.4-0.6,12.9-0.6,19.3c0,14.8,12.2,27,27,27C1166.5,1198.1,1178.7,1185.9,1178.7,1171.1z"/>
	<path class="st0" d="M2094.4,1648.6c-6.4,6.4-12.9,12.9-19.3,19.3c-10.9,10.3-10.9,27.6-0.6,37.9c5.1,5.1,12.2,8.4,19.3,8.4
		c7.1,0,13.5-2.6,18.6-7.7c7.1-7.1,13.5-13.5,20.6-20.6c10.3-10.9,9.6-27.6-1.3-37.9C2121.3,1637,2104.6,1637.6,2094.4,1648.6z"/>
	<path class="st0" d="M1590.6,423.2c-412.5,0-747.3,335.4-747.3,747.3c0,412.5,335.4,747.3,747.3,747.3
		c158.7,0,309.7-48.8,437.6-141.4c12.2-9,14.8-25.7,5.8-37.3c-9-12.2-25.7-14.8-37.3-5.8c-118.9,86.1-258.9,131.1-406.1,131.1
		c-382.3,0-694-311-694-694c0-382.3,311-694,694-694s694,311,694,694c0,138.1-40.5,271.8-117.6,386.2c-8.4,12.2-5.1,28.9,7.1,37.3
		c12.2,8.4,28.9,5.1,37.3-7.1c82.9-123.4,126.6-267.3,126.6-416.4C2337.9,758.6,2002.5,423.2,1590.6,423.2z"/>
</g>
<path class="st0" d="M2605.8,960.4c-14.2,0-25.7-11.5-25.7-25.7V584.5c0-14.2,11.5-25.7,25.7-25.7s25.7,11.5,25.7,25.7v350.2
	C2631.5,948.9,2620,960.4,2605.8,960.4z"/>
<path class="st0" d="M2781.2,785.6h-350.2c-14.2,0-25.7-11.5-25.7-25.7s11.5-25.7,25.7-25.7h350.2c14.2,0,25.7,11.5,25.7,25.7
	S2795.4,785.6,2781.2,785.6z"/>
<path class="st0" d="M2605.8,1053.5c-161.9,0-293.6-131.7-293.6-293.6c0-161.9,131.7-293.6,293.6-293.6
	c161.9,0,293.6,131.7,293.6,293.6C2899.5,921.8,2767.7,1053.5,2605.8,1053.5z M2605.8,517.7c-133.6,0-242.2,108.7-242.2,242.2
	c0,133.6,108.7,242.2,242.2,242.2c133.6,0,242.2-108.7,242.2-242.2C2848.1,626.3,2739.4,517.7,2605.8,517.7z"/>
</svg>
