<?xml version="1.0" encoding="utf-8"?>
<!-- Generator: Adobe Illustrator 25.2.2, SVG Export Plug-In . SVG Version: 6.00 Build 0)  -->
<svg version="1.1" id="Calque_1" xmlns="http://www.w3.org/2000/svg" xmlns:xlink="http://www.w3.org/1999/xlink" x="0px" y="0px"
	 viewBox="0 0 4887.2 4080.1" style="enable-background:new 0 0 4887.2 4080.1;" xml:space="preserve">
<style type="text/css">
	.st0{fill:#F8AE47;}
</style>
<g>
	<path class="st0" d="M3064.4,3146.6c31.8,0,58.1-26.3,58.1-58.1v-308.6c211.7-191,332.1-460.8,332.1-745.9
		c0-340.4-168.8-650.4-451.1-837.2v-95.5c0-110.7-90-200.7-200.7-200.7c-91.3,0-166.1,60.9-191,143.9
		c-81.6-12.5-164.7-15.2-247.7-8.3c-62.3-84.4-139.8-142.5-221.4-142.5c-143.9,0-274,177.1-328,365.3
		c-145.3,120.4-254.6,276.8-314.1,455.3c-9.7,30.4,5.5,63.7,36,73.3c5.5,2.8,12.5,2.8,18,2.8c23.5,0,47.1-15.2,55.4-38.7
		c38.7-114.9,101-220,181.3-308.6c2.8,91.3,29.1,170.2,78.9,228.3c51.2,58.1,123.2,92.7,214.5,102.4v137
		c-81.6,24.9-142.5,101-142.5,191v657.3c-163.3-114.9-286.5-285.1-343.2-477.4c-8.3-30.4-41.5-48.4-72-38.7
		c-30.4,8.3-48.4,41.5-38.7,72c70.6,243.6,235.3,452.5,453.9,581.2v49.8c0,110.7,90,200.7,200.7,200.7c81.6,0,150.8-48.4,182.7-119
		c41.5,5.5,84.4,8.3,125.9,8.3c15.2,0,29.1,0,44.3-1.4v52.6c0,31.8,26.3,58.1,58.1,58.1c31.8,0,58.1-26.3,58.1-58.1V2636h139.8
		v451.1c0,31.8,26.3,58.1,58.1,58.1s58.1-26.3,58.1-58.1V2636h139.8v451.1C3007.6,3120.3,3032.6,3146.6,3064.4,3146.6z M3339.8,2034
		c0,215.9-77.5,420.7-217.3,581.2v-148.1c0-102.4-83-185.4-185.4-185.4H2861v-143.9c81.6-24.9,142.5-101,142.5-191v-607.5
		C3216.6,1506.8,3339.8,1758.6,3339.8,2034z M2718.4,1101.3c0-47.1,38.7-84.4,84.4-84.4c47.1,0,84.4,38.7,84.4,84.4v845.5
		c0,47.1-38.7,84.4-84.4,84.4c-47.1,0-84.4-38.7-84.4-84.4V1101.3z M1907.5,1426.5c0-202,138.4-417.9,236.6-417.9
		c44.3,0,98.3,45.7,142.5,114.9c0,1.4,1.4,1.4,1.4,2.8c52.6,81.6,92.7,193.7,92.7,301.7c0,48.4-8.3,116.2-51.2,166.1
		c-38.7,44.3-101,66.4-184.1,66.4c-83,0-145.3-22.1-184.1-66.4C1915.8,1544.1,1907.5,1474.9,1907.5,1426.5z M2144.1,3030.4
		c-47.1,0-84.4-38.7-84.4-84.4v-845.5c0-47.1,38.7-84.4,84.4-84.4c47.1,0,84.4,38.7,84.4,84.4V2946
		C2228.5,2993,2191.2,3030.4,2144.1,3030.4z M2344.8,2914.1v-813.7c0-90-60.9-166.1-142.5-191v-137c90-9.7,161.9-44.3,214.5-102.4
		c52.6-59.5,80.3-143.9,80.3-242.2c0-91.3-24.9-191-66.4-279.5c58.1-1.4,116.2,2.8,173,12.5v786c0,90,60.9,166.1,142.5,191v143.9
		h-63.7c-102.4,0-185.4,83-185.4,185.4v453.9C2445.8,2922.4,2394.6,2919.7,2344.8,2914.1z M2613.2,2521.1v-55.4
		c0-38.7,31.8-69.2,69.2-69.2h256c38.7,0,69.2,31.8,69.2,69.2v55.4H2613.2z"/>
	<path class="st0" d="M1565.7,2034c0-12.5,0-24.9,1.4-37.4c1.4-31.8-23.5-59.5-55.4-60.9c-31.8-1.4-59.5,23.5-60.9,55.4
		c0,13.8-1.4,27.7-1.4,41.5c0,31.8,26.3,58.1,58.1,58.1C1539.4,2092.1,1565.7,2065.8,1565.7,2034z"/>
	<path class="st0" d="M3537.7,3062.2c-13.8,13.8-27.7,27.7-41.5,41.5c-23.5,22.1-23.5,59.5-1.4,81.6c11.1,11.1,26.3,18,41.5,18
		c15.2,0,29.1-5.5,40.1-16.6c15.2-15.2,29.1-29.1,44.3-44.3c22.1-23.5,20.8-59.5-2.8-81.6
		C3595.8,3037.3,3559.8,3038.7,3537.7,3062.2z"/>
	<path class="st0" d="M2452.7,423.2c-888.4,0-1609.4,722.4-1609.4,1609.4c0,888.4,722.4,1609.4,1609.4,1609.4
		c341.8,0,667-105.2,942.4-304.4c26.3-19.4,31.8-55.4,12.5-80.3c-19.4-26.3-55.4-31.8-80.3-12.5c-256,185.4-557.7,282.3-874.6,282.3
		c-823.4,0-1494.6-669.8-1494.6-1494.6c0-823.4,669.8-1494.6,1494.6-1494.6s1494.6,669.8,1494.6,1494.6
		c0,297.5-87.2,585.4-253.2,831.7c-18,26.3-11.1,62.3,15.2,80.3c26.3,18,62.3,11.1,80.3-15.2c178.5-265.7,272.6-575.7,272.6-896.7
		C4062.1,1145.6,3339.8,423.2,2452.7,423.2z"/>
</g>
</svg>
