<?xml version="1.0" encoding="utf-8"?>
<!-- Generator: Adobe Illustrator 25.2.2, SVG Export Plug-In . SVG Version: 6.00 Build 0)  -->
<svg version="1.1" id="Calque_1" xmlns="http://www.w3.org/2000/svg" xmlns:xlink="http://www.w3.org/1999/xlink" x="0px" y="0px"
	 viewBox="0 0 4793.3 3387.7" style="enable-background:new 0 0 4793.3 3387.7;" xml:space="preserve">
<style type="text/css">
	.st0{fill-rule:evenodd;clip-rule:evenodd;fill:#F1AB25;}
</style>
<path class="st0" d="M3166.6,565.8c311.7,72.3,431.1,254.8,580.6,505.5h-580.6V565.8z M1345.4,1092.3c61.1,0,105.3,29.5,105.3,98.3
	c0,58.3-47,105.3-105.3,105.3H709.4c-58.3,0-105.3,47-105.3,105.3s47,105.3,105.3,105.3h947.8c59,0,106,47,106,105.3
	s-47,105.3-105.3,105.3H709.4c-58.3,0-105.3,47-105.3,105.3s47,105.3,105.3,105.3H941v315.9c0,58.3,47,105.3,105.3,105.3h212
	c37.9,186,202.2,322.9,395.3,322.9s358.1-136.9,395.3-322.9h1069.2c37.9,186,202.2,322.9,395.3,322.9s358.1-136.9,395.3-322.9h184.6
	c58.3,0,105.3-47,105.3-105.3v-631.9c0-308.9-325.8-329.3-326.5-330h-810.9c-58.3,0-105.3-47-105.3-105.3V544.7H1046.4
	c-58.3,0-105.3,47-105.3,105.3v231.7H814.7c-58.3,0-105.3,47-105.3,105.3c0,58.3,47,105.3,105.3,105.3H1345.4z M3650.3,2132.1
	c75.1,75.1,75.1,198,0,273.1c-121.5,121.5-329.3,35.1-329.3-136.2C3321,2097,3529.6,2010.6,3650.3,2132.1z M1789.8,2132.1
	c75.1,75.1,75.1,198,0,273.1c-121.5,121.5-329.3,35.1-329.3-136.2C1460.6,2097,1669.1,2010.6,1789.8,2132.1z"/>
</svg>
