<?xml version="1.0" encoding="utf-8"?>
<!-- Generator: Adobe Illustrator 25.2.2, SVG Export Plug-In . SVG Version: 6.00 Build 0)  -->
<svg version="1.1" id="Calque_1" xmlns="http://www.w3.org/2000/svg" xmlns:xlink="http://www.w3.org/1999/xlink" x="0px" y="0px"
	 viewBox="0 0 5002.8 2689.3" style="enable-background:new 0 0 5002.8 2689.3;" xml:space="preserve">
<style type="text/css">
	.st0{fill:#FFFFFF;}
</style>
<path class="st0" d="M1801.7,2004.3c-4.9,5.8-15.6,12.3-33.7,19.7c-17.3,7.4-28.8,21.4-33.7,40.3c-1.6,10.7,0,18.9,4.9,22.2
	c4.9,4.1,10.7,5.8,19.7,5.8c5.8,0,11.5-1.6,17.3-5.8c5.8-4.1,9.9-9,10.7-14.8L1801.7,2004.3z M1806.6,2073.4
	c-0.8,8.2,2.5,11.5,9.9,11.5l-6.6,19.7c-9,0-14.8-2.5-17.3-8.2c-9.9,9-22.2,14-37,14c-14.8,0-26.3-4.1-33.7-12.3s-9.9-19.7-6.6-33.7
	c2.5-12.3,7.4-23,15.6-32.9c7.4-9,18.9-17.3,32.9-24.7c14.8-5.8,25.5-11.5,32.1-18.1c6.6-6.6,11.5-13.2,13.2-18.9
	c1.6-7.4,0.8-12.3-2.5-17.3c-3.3-4.1-9-6.6-17.3-6.6c-6.6,0-13.2,1.6-18.1,5.8c-4.9,3.3-8.2,6.6-9.9,9l-18.9-4.9
	c0.8-4.9,6.6-10.7,17.3-18.1c9.9-7.4,21.4-10.7,33.7-10.7c14.8,0,24.7,4.1,30.4,12.3c5.8,8.2,7.4,18.9,4.1,31.3L1806.6,2073.4z"/>
<path class="st0" d="M2004,1930.3h16.4l-4.1,18.9h-16.4l-32.9,155.4h-18.9l32.9-155.4h-15.6l4.1-18.9h15.6l3.3-14.8
	c3.3-16.4,9.9-28.8,18.1-37.8c8.2-9,18.1-13.2,28.8-13.2l-4.1,18.9c-4.9,0-9.9,2.5-14,8.2c-4.1,5.8-7.4,13.2-9.9,24.7L2004,1930.3z"
	/>
<path class="st0" d="M2172.6,1930.3l-1.6,6.6c5.8-7.4,12.3-11.5,18.9-11.5l-4.1,18.9c-2.5,0-6.6,2.5-11.5,7.4
	c-5.8,4.9-9,11.5-10.7,20.6l-28,132.4h-18.9l37-174.4L2172.6,1930.3L2172.6,1930.3z"/>
<path class="st0" d="M2345.3,1887.5c-2.5,1.6-4.9,2.5-7.4,2.5s-4.9-0.8-5.8-2.5c-1.6-1.6-1.6-4.1-1.6-6.6c0.8-2.5,1.6-4.9,4.1-6.6
	s4.9-2.5,7.4-2.5c2.5,0,4.9,0.8,6.6,2.5s1.6,4.1,1.6,6.6C2348.6,1883.4,2347,1885,2345.3,1887.5 M2319.8,1931.1h18.9l-37,173.5
	h-18.9L2319.8,1931.1z"/>
<path class="st0" d="M2540.3,2068.5c-1.6,9-9,18.9-19.7,28c-11.5,9-23,14-36.2,14c-13.2,0-23-4.9-30.4-14c-7.4-9-9.9-20.6-6.6-33.7
	l18.9-89.6c2.5-13.2,9.9-23.9,20.6-33.7c11.5-9,23-14,36.2-14c13.2,0,23,4.9,30.4,14s9.9,18.9,8.2,28l-20.6,5.8
	c1.6-7.4,0-14-4.1-19.7c-4.1-5.8-9.9-8.2-17.3-8.2c-17.3,0-28,9-33.7,27.1l-18.9,90.5c-0.8,18.1,5.8,26.3,22.2,26.3
	c7.4,0,14-2.5,21.4-8.2c6.6-4.9,10.7-11.5,12.3-19.7L2540.3,2068.5z"/>
<path class="st0" d="M2748.4,2004.3c-4.9,5.8-15.6,12.3-33.7,19.7c-17.3,7.4-28.8,21.4-33.7,40.3c-1.6,10.7,0,18.9,4.9,22.2
	c4.9,4.1,10.7,5.8,19.7,5.8c5.8,0,11.5-1.6,17.3-5.8c5.8-4.1,9.9-9,10.7-14.8L2748.4,2004.3z M2753.3,2073.4
	c-0.8,8.2,2.5,11.5,9.9,11.5l-6.6,19.7c-9,0-14.8-2.5-17.3-8.2c-9.9,9-22.2,14-37,14c-14.8,0-26.3-4.1-33.7-12.3s-9.9-19.7-6.6-33.7
	c2.5-12.3,7.4-23,15.6-32.9c7.4-9,18.9-17.3,32.9-24.7c14.8-5.8,25.5-11.5,32.1-18.1c6.6-6.6,11.5-13.2,13.2-18.9
	c1.6-7.4,0.8-12.3-2.5-17.3c-3.3-4.1-9-6.6-17.3-6.6c-6.6,0-13.2,1.6-18.1,5.8c-4.9,3.3-8.2,6.6-9.9,9l-18.9-4.9
	c0.8-4.9,6.6-10.7,17.3-18.1c9.9-7.4,21.4-10.7,33.7-10.7c14.8,0,24.7,4.1,30.4,12.3c5.8,8.2,7.4,18.9,4.1,31.3L2753.3,2073.4z"/>
<path class="st0" d="M2969.6,1925.3c13.2,0,23,4.1,30.4,12.3c7.4,8.2,9.9,19.7,6.6,34.5l-28,132.4h-18.9l28-133.2
	c1.6-18.1-5.8-27.1-22.2-27.1c-9,0-16.4,2.5-22.2,8.2c-5.8,5.8-9.9,12.3-11.5,19.7l-28,132.4h-18.9l37-174.4h18.9l-0.8,5.8
	C2947.4,1929.5,2957.3,1925.3,2969.6,1925.3"/>
<path class="st0" d="M3400.6,1930.3h16.4l-4.1,18.9h-16.4l-32.9,155.4h-18.9l32.9-155.4h-15.6l4.1-18.9h15.6l3.3-14.8
	c3.3-16.4,9.9-28.8,18.1-37.8c8.2-9,18.1-13.2,28.8-13.2l-4.1,18.9c-4.9,0-9.9,2.5-14,8.2s-7.4,13.2-9.9,24.7L3400.6,1930.3z"/>
<path class="st0" d="M3563.4,2090.7c16.4,0,28-9,33.7-27.1l18.9-90.5c0.8-18.1-5.8-27.1-22.2-27.1c-15.6,0-27.1,9-33.7,27.1
	l-18.9,90.5C3540.4,2081.6,3547.8,2090.7,3563.4,2090.7 M3598,1926.2c13.2,0,23,4.9,30.4,14s9.9,20.6,6.6,33.7l-18.9,89.6
	c-2.5,13.2-9.9,24.7-20.6,33.7c-11.5,9-23,14-36.2,14c-13.2,0-23-4.9-30.4-14c-7.4-9-9.9-20.6-6.6-33.7l18.9-89.6
	c2.5-13.2,9.9-24.7,21.4-33.7C3573.3,1930.3,3585.6,1926.2,3598,1926.2"/>
<path class="st0" d="M3794.5,2090.7c16.4,0,28-9,33.7-27.1l18.9-90.5c0.8-18.1-5.8-27.1-22.2-27.1c-15.6,0-27.1,9-33.7,27.1
	l-18.9,90.5C3771.5,2081.6,3778.1,2090.7,3794.5,2090.7 M3829.1,1926.2c13.2,0,23,4.9,30.4,14c7.4,9,9.9,20.6,6.6,33.7l-18.9,89.6
	c-2.5,13.2-9.9,24.7-20.6,33.7c-11.5,9-23,14-36.2,14c-13.2,0-23-4.9-30.4-14c-7.4-9-9.9-20.6-6.6-33.7l18.9-89.6
	c2.5-13.2,9.9-24.7,21.4-33.7C3804.4,1930.3,3815.9,1926.2,3829.1,1926.2"/>
<path class="st0" d="M4074.2,1953.3c-4.1-4.9-10.7-7.4-18.1-7.4c-7.4,0-14.8,2.5-21.4,8.2c-6.6,5.8-10.7,12.3-12.3,19.7l-18.9,89.6
	c-1.6,7.4,0,14,4.1,19.7c4.1,5.8,9.9,8.2,18.1,8.2c9.9,0,18.1-2.5,23-7.4c4.9-4.9,9-11.5,10.7-20.6l18.9-89.6
	C4079.9,1964.8,4078.3,1958.2,4074.2,1953.3 M4085.7,1936l14-65h19.7l-49.3,234.4h-19.7l0.8-4.9c-8.2,6.6-18.1,9.9-29.6,9.9
	c-13.2,0-23-4.9-30.4-14c-7.4-9-9.9-20.6-6.6-33.7l18.9-89.6c2.5-13.2,9.9-24.7,20.6-33.7c11.5-9,23-14,36.2-14
	C4073.4,1926.2,4081.6,1929.5,4085.7,1936"/>
<path class="st0" d="M1473.5,462.2c-27.1,97.9-77.3,222.9-109.4,276.3l-65,8.2c25.5-69.1,55.9-190,69.1-273.9L1473.5,462.2z"/>
<path class="st0" d="M3866.9,1362.8c-4.1,4.1-18.1,18.1-41.9,41.1s-49.3,46.9-77.3,73.2c-28,25.5-53.5,48.5-76.5,68.3
	c-23,19.7-35.4,29.6-36.2,29.6l6.6-9l313.4-380c7.4-10.7,15.6-20.6,25.5-31.3c9.9-10.7,18.9-19.7,28-28.8c7.4-7.4,14.8-14.8,23-22.2
	c8.2-7.4,15.6-13.2,23-17.3c4.1-4.1,12.3-9.9,23-15.6c10.7-5.8,20.6-6.6,28-2.5c4.1,4.1,4.9,11.5,0.8,21.4c-3.3,9.9-7.4,17.3-9.9,23
	c-7.4,14.8-16.4,28.8-28,41.9c-10.7,13.2-21.4,25.5-32.1,37.8c-29.6,29.6-58.4,58.4-86.4,86.4
	C3922.8,1306.8,3894.9,1334.8,3866.9,1362.8 M4447.6,1243.5c-3.3-5.8-5.8-10.7-9-15.6c-3.3-3.3-5.8-5.8-9-9c-3.3-3.3-5.8-4.9-9-6.6
	c-3.3-4.1-7.4-5.8-12.3-3.3s-9,4.9-12.3,7.4c-14.8,11.5-29.6,23-44.4,34.5c-14.8,10.7-29.6,22.2-44.4,34.5
	c-18.9,16.4-38.7,32.1-58.4,48.5c-19.7,16.4-40.3,32.9-60.9,51c-24.7,20.6-50.2,41.1-74.8,61.7c-24.7,20.6-50.2,40.3-74.8,60
	c-3.3,1.6-8.2,4.9-15.6,10.7c-7.4,5.8-15.6,12.3-24.7,18.9c-9,6.6-17.3,13.2-24.7,18.9c-7.4,5.8-11.5,9-13.2,9h-2.5
	c-1.6,0-0.8-2.5,0.8-7.4c2.5-4.9,3.3-8.2,3.3-9.9c9-14.8,18.1-30.4,28.8-46.1c7.4-11.5,14.8-23.9,23-35.4
	c8.2-11.5,16.4-23.9,25.5-35.4c11.5-16.4,23-32.1,34.5-48.5c10.7-16.4,22.2-31.3,34.5-46.1c4.1-4.1,7.4-9,9.9-13.2
	c2.5-4.1,4.9-9,7.4-13.2c26.3-32.1,53.5-63.3,81.4-93.8c28-30.4,56.8-59.2,86.4-87.2c11.5-16.4,24.7-31.3,37.8-44.4
	c13.2-13.2,26.3-25.5,39.5-37.8c7.4-10.7,9.9-20.6,6.6-31.3c-3.3-10.7-9-20.6-17.3-29.6c-9-9.9-18.9-18.1-29.6-25.5
	c-10.7-7.4-19.7-13.2-25.5-17.3c-5.8-5.8-14.8-6.6-26.3-2.5h0v2.5c-4.1,3.3-9,7.4-13.2,13.2c-5.8,5.8-12.3,13.2-18.9,21.4
	s-14,15.6-23,23l-121.7-70.7c-11.5-5.8-24.7-6.6-39.5-0.8c-14.8,4.9-28.8,12.3-42.8,21.4c-14,9-28,18.9-41.1,29.6
	c-13.2,10.7-23,19.7-28.8,25.5c-18.9,16.4-37.8,32.9-55.1,51c-18.1,17.3-34.5,35.4-51,52.6c-18.9,20.6-37.8,41.1-55.1,61.7
	c-17.3,20.6-35.4,41.1-52.6,61.7c-31.3,37-60,74-88,111.9c-28,37.8-56.8,74.8-86.4,111.9c-10.7,14.8-21.4,28.8-32.1,41.9
	c-10.7,13.2-21.4,28-32.1,44.4c-7.4,7.4-14,15.6-19.7,24.7c-5.8,9-11.5,17.3-17.3,24.7c-7.4,7.4-13.2,15.6-16.4,25.5
	c-3.3,9.9-4.1,18.9-0.8,28c3.3,4.1,8.2,10.7,15.6,17.3c9,7.4,18.1,15.6,28,24.7c9.9,9,18.9,17.3,28,24.7
	c7.4,5.8,14.8,11.5,22.2,16.4c7.4,4.9,14,9.9,19.7,14c5.8,3.3,13.2,6.6,21.4,9.9c8.2,3.3,14,4.1,18.9,0.8c3.3,0,5.8-0.8,9-2.5
	s5.8-3.3,9-4.1c26.3-26.3,54.3-53.5,83.1-80.6s56.8-53.5,84.7-78.1c0,3.3-0.8,4.1-2.5,4.1c-3.3,9-5.8,18.1-7.4,28.8
	c-2.5,10.7-1.6,18.9,0.8,26.3c0,5.8,2.5,10.7,6.6,15.6c9,7.4,18.1,15.6,28,24.7c9.9,9,19.7,17.3,29.6,24.7
	c10.7,10.7,24.7,20.6,41.9,31.3c5.8,3.3,12.3,6.6,19.7,9.9c7.4,3.3,14.8,4.1,22.2,0.8c3.3,0,6.6-2.5,10.7-6.6
	c42.8-41.1,86.4-81.4,129.9-121.7c44.4-39.5,88-80.6,129.9-121.7c29.6-24.7,58.4-51.8,87.2-79.8c28.8-28,57.6-55.1,87.2-81.4
	c9-9,18.1-18.1,28-28c9.9-9.9,19.7-18.9,29.6-28c7.4-7.4,14-13.2,19.7-17.3c0-1.6,0.8-2.5,2.5-3.3c1.6-0.8,3.3-2.5,4.1-5.8
	C4450.9,1254.2,4450.9,1249.3,4447.6,1243.5"/>
<path class="st0" d="M1071.3,958.9L1071.3,958.9c-0.8,2.5-2.5,4.1-3.3,6.6l0,0c-4.9,9.9-36.2,69.1-47.7,89.6
	c-5.8,10.7-11.5,20.6-18.1,31.3c-14.8,24.7-30.4,49.3-46.9,74c-13.2,20.6-27.1,41.9-43.6,64.2c-15.6,22.2-33.7,41.9-51.8,60
	c-15.6,17.3-35.4,37-57.6,60c-10.7,10.7-22.2,19.7-33.7,27.1c-0.8,0-0.8,0.8-1.6,0.8c-7.4,4.9-15.6,8.2-23,11.5
	c-9.9,3.3-18.1,1.6-21.4-9c-6.6-22.2-5.8-46.1,1.6-71.6c8.2-26.3,16.4-47.7,24.7-65c26.3-59.2,59.2-116,99.5-169.4
	c34.5-49.3,71.6-94.6,111.9-134.9c20.6-19.7,88.8-81.4,123.4-91.3c5.8-1.6,10.7-1.6,15.6,0.8c1.6,1.6,3.3,3.3,4.9,4.9
	c2.5,3.3,4.1,7.4,4.1,13.2c0,0.8,0,0.8,0,1.6C1110,887.4,1088.6,928.5,1071.3,958.9 M1228.4,949.9c19.7-37,23-63.3,21.4-79.8v-0.8
	c0-3.3-0.8-7.4-2.5-11.5c0-0.8-0.8-1.6-0.8-2.5l0,0c-4.1-8.2-11.5-17.3-22.2-26.3c-17.3-14.8-37-30.4-58.4-45.2
	c-21.4-14.8-43.6-28.8-65-40.3s-37.8-20.6-47.7-26.3c-15.6-7.4-28.8-9-39.5-6.6c-3.3,1.6-5.8,2.5-7.4,3.3c-2.5,0.8-4.1,1.6-5.8,3.3
	c-11.5,5.8-23,12.3-33.7,18.1c-10.7,6.6-21.4,13.2-31.3,20.6c-13.2,9-25.5,18.1-37.8,28c-12.3,9.9-23.9,20.6-36.2,30.4
	c-26.3,24.7-51,50.2-74.8,75.7c-23.9,26.3-47.7,53.5-70.7,82.2c-17.3,21.4-37.8,49.3-60.9,82.2c-23,33.7-43.6,69.1-60.9,106.1
	c-17.3,37.8-29.6,75.7-37,114.3s-4.1,74,9,107.7c4.1,11.5,14.8,24.7,30.4,40.3c15.6,14.8,33.7,29.6,53.5,41.9
	c19.7,13.2,39.5,24.7,58.4,34.5s36.2,15.6,48.5,17.3c11.5,3.3,23.9-0.8,37.8-10.7c14-9.9,23.9-18.9,31.3-26.3
	c17.3-13.2,33.7-27.1,48.5-43.6c14.8-15.6,30.4-32.9,44.4-50.2c4.1-4.1,7.4-8.2,11.5-12.3c13.2-14.8,32.1-37,52.6-60.9
	c4.1-4.9,8.2-9.9,12.3-15.6l7.4-8.2c33.7-40.3,67.4-83.1,86.4-111c0.8-1.6,2.5-3.3,3.3-4.9c1.6-2.5,3.3-4.9,4.9-7.4l0.8-0.8
	c11.5-17.3,22.2-34.5,33.7-51.8c1.6-2.5,3.3-5.8,4.9-8.2c0,0,0,0,0-0.8c2.5-3.3,4.9-7.4,7.4-11.5c5.8-9,11.5-18.1,16.4-27.1
	c28-46.9,55.9-96.2,67.4-116l0,0C1228.4,950.7,1228.4,950.7,1228.4,949.9"/>
<path class="st0" d="M2610.2,453.1c-4.1-10.7-11.5-20.6-21.4-29.6c-9.9-9.9-19.7-18.1-29.6-26.3c-10.7-8.2-18.1-14-24.7-18.9
	c-13.2-5.8-24.7-5.8-32.9,0c-1.6,1.6-3.3,3.3-4.1,5.8c-1.6,2.5-3.3,4.1-6.6,5.8c-10.7,10.7-18.9,20.6-26.3,32.1
	c-7.4,10.7-16.4,22.2-26.3,34.5c-16.4,20.6-32.1,40.3-48.5,58.4c-16.4,18.1-32.1,37.8-48.5,58.4c-44.4,52.6-89.6,106.1-135.7,160.4
	c-46.1,53.5-91.3,106.9-135.7,160.4c-42.8,48.5-85.5,97.9-129.1,148c-43.6,50.2-87.2,99.5-131.6,148c-30.4,29.6-60.9,60-92.1,92.1
	c-1.6,1.6-2.5,2.5-4.1,3.3c-6.6,6.6-13.2,13.2-18.9,18.9c-3.3,3.3-5.8,5.8-9,8.2c-2.5,2.5-4.9,4.9-7.4,7.4
	c-4.1,3.3-7.4,6.6-10.7,9.9c-0.8,0.8-1.6,1.6-2.5,2.5c-4.1,3.3-8.2,6.6-11.5,9.9l0,0c-17.3,14-28.8,22.2-37.8,28.8l0,0
	c-2.5,1.6-4.9,3.3-7.4,4.9c-10.7,7.4-21.4,14-32.9,18.9c-11.5,4.9-23.9,9-35.4,10.7c-11.5,2.5-21.4,0.8-28.8-3.3
	c-11.5-9-15.6-24.7-12.3-46.1c3.3-22.2,10.7-45.2,19.7-70.7c9.9-24.7,19.7-48.5,31.3-70.7c10.7-22.2,18.1-37,20.6-44.4
	c16.4-32.1,33.7-63.3,52.6-92.9c18.9-29.6,39.5-58.4,61.7-86.4c20.6-31.3,41.9-60.9,64.2-89.6c22.2-28.8,45.2-57.6,70.7-87.2
	c38.7-46.9,77.3-92.1,118.4-135.7c33.7-36.2,67.4-74,101.2-113.5h0.8c5.8-6.6,13.2-14.8,19.7-22.2l0,0c8.2-9,15.6-17.3,20.6-23l0,0
	c7.4-9,14.8-18.1,22.2-24.7c7.4-10.7,9-20.6,5.8-31.3c-3.3-10.7-10.7-20.6-19.7-29.6c-9.9-9.9-19.7-18.1-31.3-26.3
	c-10.7-8.2-19.7-14-25.5-18.9c-10.7-5.8-20.6-5.8-31.3,0c-1.6,1.6-3.3,3.3-5.8,5.8c-2.5,2.5-3.3,4.1-3.3,5.8
	c-26.3,31.3-60.9,55.1-102.8,71.6c-41.9,17.3-85.5,28-131.6,32.9c-46.1,4.9-91.3,4.9-135.7,0c-45.2-4.9-84.7-14.8-120.1-29.6
	c-3.3,0-3.3,3.3-2.5,9.9c1.6,6.6,3.3,14,4.1,21.4c0.8,4.1,1.6,7.4,3.3,11.5l0,0c3.3,13.2,21.4,80.6,37.8,99.5l0.8,0.8
	c0.8,0.8,0.8,1.6,1.6,1.6c2.5,2.5,8.2,7.4,17.3,12.3c32.9,15.6,69.1,22.2,106.1,23c37,0.8,72.4-2.5,106.1-9.9
	c-32.1,35.4-64.2,70.7-96.2,106.9c-32.1,36.2-62.5,73.2-91.3,111.9c-38.7,44.4-74.8,88.8-109.4,134.9
	c-34.5,46.1-65.8,94.6-93.8,145.6c-11.5,18.9-23.9,41.1-35.4,66.6c-11.5,24.7-21.4,51-28.8,78.1c-7.4,27.1-11.5,54.3-13.2,80.6
	c-1.6,26.3,3.3,51,13.2,73.2c2.5,7.4,6.6,14,10.7,19.7l0,0c0,0,0,0,0,0.8l0,0c10.7,16.4,60,71.6,136.5,57.6c2.5-0.8,4.1-0.8,6.6-1.6
	c1.6,0,2.5,0,4.1,0c24.7-4.9,48.5-13.2,71.6-23c29.6-11.5,56.8-26.3,83.1-44.4c25.5-17.3,51-36.2,76.5-55.1
	c-24.7,26.3-49.3,52.6-73.2,78.1c-23.9,25.5-46.1,51-68.3,76.5c-42.8,46.1-83.1,92.1-121.7,139c-38.7,46.9-76.5,94.6-115.1,143.9
	c-29.6,42.8-59.2,86.4-89.6,131.6c-23.9,35.4-46.1,73.2-68.3,111c0,0.8-0.8,0.8-0.8,0.8c-4.9,9-9,16.4-13.2,23.9
	c-0.8,1.6-1.6,3.3-2.5,4.9c0,0.8-0.8,1.6-0.8,2.5c-3.3,7.4-5.8,14.8-7.4,23v0.8c-1.6,4.1-2.5,9-2.5,14l0,0c0,4.1,0.8,8.2,1.6,13.2
	c0,0.8,0,0.8,0,1.6s0.8,1.6,1.6,2.5c11.5,28,47.7,65,66.6,82.2l0,0c1.6,1.6,2.5,2.5,4.1,4.1c4.9,4.1,9,7.4,14,9
	c1.6,0.8,3.3,1.6,4.9,1.6c0.8,0,1.6,0,3.3,0c7.4-0.8,11.5-8.2,12.3-10.7c44.4-82.2,92.1-162.8,144.8-241
	c52.6-78.1,105.3-157.1,157.9-236c59.2-83.9,120.1-167,183.4-250c63.3-82.2,128.3-164.5,194.1-245.1
	c108.6-135.7,219.6-268.1,332.3-398.9c112.7-130,225.4-261.5,338.9-394C2612.6,472.9,2614.3,463,2610.2,453.1"/>
<path class="st0" d="M3442.5,1253.4c-29.6,49.3-59.2,97.9-88,144.8c-22.2,33.7-45.2,66.6-69.9,98.7s-50.2,62.5-78.1,91.3
	c-14.8,20.6-33.7,40.3-57.6,60c-11.5,11.5-27.1,23.9-46.1,35.4c-7.4,5.8-17.3,11.5-28.8,16.4c-11.5,4.9-23,4.9-32.9-0.8
	c-10.7-9-14-23-10.7-41.9c3.3-18.9,5.8-33.7,9-44.4c3.3-11.5,7.4-24.7,13.2-38.7c5.8-14,11.5-27.1,17.3-38.7
	c4.9-9,10.7-18.1,15.6-27.1c13.2-12.3,27.1-23.9,40.3-37c28.8-28,57.6-55.1,87.2-81.4c9-9,18.1-18.1,28-28s19.7-18.9,29.6-28
	c7.4-7.4,14-13.2,19.7-17.3c0-1.6,0.8-2.5,2.5-3.3c0.8,0,0.8-1.6,1.6-1.6l232.8-206.4C3500.1,1154.7,3472.1,1204,3442.5,1253.4
	 M2828.1,1398.1c-22.2,33.7-45.2,66.6-69.9,98.7s-50.2,62.5-78.1,91.3c-14.8,20.6-33.7,40.3-57.6,60c-11.5,11.5-27.1,23.9-46.1,35.4
	c-7.4,5.8-17.3,11.5-28.8,16.4c-11.5,4.9-23,4.9-32.9-0.8c-10.7-9-14-23-10.7-41.9c3.3-18.9,5.8-33.7,9-44.4
	c3.3-11.5,7.4-24.7,13.2-38.7c5.8-14,11.5-27.1,17.3-38.7c4.9-9,9.9-18.1,15.6-27.1c3.3-2.5,5.8-5.8,9-8.2
	c29.6-24.7,58.4-51.8,87.2-79.8s57.6-55.1,87.2-81.4l28-28c9.9-9.9,19.7-18.9,29.6-28c7.4-7.4,14-13.2,19.7-17.3
	c0-0.8,0.8-0.8,0.8-1.6l180.1-159.6c-26.3,50.2-54.3,99.5-83.9,148.9C2887.4,1302.7,2857.7,1351.3,2828.1,1398.1 M2245,1362.8
	c-4.1,4.1-18.1,18.1-41.9,41.1s-49.3,46.9-77.3,73.2c-28,25.5-53.5,48.5-76.5,68.3c-23,19.7-35.4,29.6-36.2,29.6l6.6-9l313.4-380
	c7.4-10.7,15.6-20.6,25.5-31.3s18.9-19.7,28-28.8c7.4-7.4,14.8-14.8,23-22.2c8.2-7.4,15.6-13.2,23-17.3c4.1-4.1,12.3-9.9,23-15.6
	c10.7-5.8,20.6-6.6,28-2.5c4.1,4.1,4.9,11.5,0.8,21.4c-3.3,9.9-7.4,17.3-9.9,23c-7.4,14.8-16.4,28.8-28,41.9
	c-10.7,13.2-21.4,25.5-32.1,37.8c-29.6,29.6-58.4,58.4-86.4,86.4C2300.9,1306.8,2273,1334.8,2245,1362.8 M3913.8,883.3
	c-4.9-7.4-9.9-14-14-19.7c-10.7-10.7-19.7-21.4-28.8-32.9c-7.4-7.4-14-14.8-18.9-22.2c-4.9-7.4-11.5-14-18.9-19.7
	c-3.3-3.3-5.8-4.9-7.4-5.8c-2.5-0.8-4.9-2.5-7.4-5.8c-5.8-3.3-13.2-3.3-21.4-0.8c-8.2,2.5-14.8,4.9-21.4,7.4
	c-18.9,11.5-36.2,24.7-51,39.5l-160.4,184.2L3261.6,1260h-0.8c-105.3,85.5-302.7,244.3-355.3,283.8c23.9-32.9,46.9-65.8,67.4-101.2
	c20.6-37,40.3-74.8,58.4-113.5c18.1-38.7,35.4-78.1,51.8-118.4c14.8-32.1,28.8-66.6,41.9-103.6c10.7-28,23-57.6,37.8-88
	c16.4-7.4,32.9-14,49.3-21.4c17.3-6.6,34.5-14,51.8-21.4c26.3-7.4,50.2-16.4,70.7-26.3c9-3.3,20.6-8.2,34.5-16.4
	c14-8.2,22.2-17.3,25.5-28c1.6-7.4,0-14.8-5.8-22.2c-4.9-7.4-9.9-14-14-19.7c-10.7-10.7-19.7-21.4-28.8-32.9
	c-7.4-7.4-14-14.8-18.9-22.2c-4.9-7.4-11.5-14-18.9-19.7c-3.3-3.3-5.8-4.9-7.4-5.8c-2.5-0.8-4.9-2.5-7.4-5.8
	c-5.8-3.3-13.2-3.3-21.4-0.8c-8.2,2.5-14.8,4.9-20.6,7.4c-18.9,11.5-36.2,24.7-51,39.5l-162,184.2L2861,1154.7
	c-1.6,0.8-3.3,2.5-4.9,4.1l-0.8,0.8c-1.6,1.6-3.3,2.5-4.9,4.1l0,0c-1.6,1.6-4.1,3.3-6.6,4.9c-0.8,0-0.8,0.8-1.6,1.6
	c-4.9,4.1-9.9,8.2-15.6,12.3c-0.8,0.8-1.6,0.8-1.6,1.6c-5.8,4.9-12.3,9.9-18.9,15.6l0,0c-75.7,60.9-204,161.2-303.5,239.3l0,0
	c-0.8,0.8-2.5,1.6-3.3,2.5c-1.6,1.6-3.3,2.5-5.8,4.1c-1.6,0.8-2.5,2.5-4.1,3.3c-2.5,1.6-4.1,3.3-6.6,4.9c-1.6,1.6-3.3,2.5-4.9,4.1
	c-0.8,0.8-1.6,1.6-2.5,2.5c-2.5,1.6-4.1,3.3-6.6,4.9c-1.6,0.8-2.5,2.5-4.1,3.3c-1.6,0.8-3.3,2.5-4.1,3.3c-0.8,0.8-2.5,1.6-3.3,3.3
	c-1.6,1.6-3.3,2.5-4.9,4.1s-3.3,2.5-4.9,4.1c-0.8,0.8-2.5,1.6-3.3,2.5c-1.6,0.8-3.3,2.5-4.9,3.3c-1.6,0.8-2.5,1.6-4.1,3.3
	c-1.6,0.8-2.5,1.6-4.1,3.3s-3.3,2.5-4.9,4.1c-0.8,0.8-1.6,1.6-3.3,2.5c-1.6,0.8-2.5,2.5-4.1,3.3c-1.6,0.8-2.5,1.6-4.1,3.3
	c-1.6,0.8-2.5,2.5-4.1,3.3c-0.8,0.8-1.6,0.8-1.6,1.6c-1.6,1.6-3.3,2.5-4.9,4.1c-0.8,0-0.8,0.8-1.6,0.8c-1.6,1.6-3.3,2.5-4.9,4.1
	l-0.8,0.8c-1.6,1.6-3.3,2.5-4.9,4.1c-17.3,13.2-29.6,23-33.7,26.3c-1.6,1.6-3.3,2.5-4.9,3.3c-0.8,0-0.8,0.8-1.6,0.8
	c-0.8,0.8-1.6,1.6-3.3,1.6l-0.8,0.8c-0.8,0.8-2.5,0.8-3.3,1.6l0,0c-0.8,0-1.6,0-2.5,0c0,0,0,0-0.8,0h-0.8l0,0c0,0-0.8-0.8-0.8-1.6
	l0,0c0-0.8,0-1.6,0-1.6v-0.8c0-0.8,0-1.6,0.8-1.6v-0.8c0-0.8,0.8-2.5,1.6-3.3c0,0,0,0,0-0.8c0.8-0.8,0.8-2.5,1.6-3.3
	c0-0.8,0.8-0.8,0.8-1.6c0.8-0.8,0.8-2.5,1.6-3.3c0-0.8,0.8-0.8,0.8-1.6c0.8-1.6,1.6-3.3,2.5-4.9c4.9-8.2,10.7-17.3,16.4-27.1
	c0,0,0,0,0-0.8c1.6-2.5,2.5-4.1,4.1-6.6c7.4-11.5,14.8-23.9,23-35.4c8.2-11.5,16.4-23.9,25.5-35.4c11.5-16.4,23-32.1,34.5-48.5
	c10.7-16.4,22.2-31.3,34.5-46.1c4.1-4.1,7.4-9,9.9-13.2c2.5-4.1,4.9-9,7.4-13.2c26.3-32.1,53.5-63.3,81.4-93.8
	c28-30.4,56.8-59.2,86.4-87.2c11.5-16.4,24.7-31.3,37.8-44.4c13.2-13.2,26.3-25.5,39.5-37.8c7.4-10.7,9.9-20.6,6.6-31.3
	c-3.3-10.7-9-20.6-17.3-29.6c-9-9.9-18.9-18.1-29.6-25.5c-10.7-7.4-19.7-13.2-25.5-17.3c-5.8-5.8-14.8-6.6-26.3-2.5h-2.5v2.5
	c-4.1,3.3-9,7.4-13.2,13.2c-5.8,5.8-12.3,13.2-18.9,21.4c-6.6,8.2-14,15.6-23,23L2477.8,931c-11.5-5.8-24.7-6.6-39.5-0.8
	c-14.8,4.9-28.8,12.3-42.8,21.4c-14,9-28,18.9-41.1,29.6c-13.2,10.7-23,19.7-28.8,25.5c-18.9,16.4-37.8,32.9-55.1,51
	c-17.3,18.1-34.5,35.4-51,52.6c-18.9,20.6-37.8,41.1-55.1,61.7c-17.3,20.6-35.4,41.1-52.6,61.7c-31.3,37-60,74-88,111.9
	c-28,37.8-56.8,74.8-86.4,111.9c-10.7,14.8-20.6,28.8-32.1,41.9c-10.7,13.2-21.4,28-32.1,44.4c-7.4,7.4-14,15.6-19.7,24.7
	c-5.8,9-11.5,17.3-17.3,24.7c-7.4,7.4-13.2,15.6-16.4,25.5c-3.3,9.9-4.1,18.9-0.8,28c3.3,4.1,8.2,10.7,15.6,17.3
	c9,7.4,18.1,15.6,28,24.7c9.9,9,18.9,17.3,28,24.7c7.4,5.8,14.8,11.5,22.2,16.4c7.4,4.9,14,9.9,19.7,14c5.8,3.3,13.2,6.6,21.4,9.9
	c8.2,3.3,14,4.1,18.9,0.8c3.3,0,5.8-0.8,9-2.5s5.8-3.3,9-4.1c26.3-26.3,54.3-53.5,83.1-80.6c28.8-27.1,56.8-53.5,84.7-78.1
	c0,3.3-0.8,4.1-2.5,4.1c-3.3,9-5.8,18.1-7.4,28.8c-2.5,10.7-1.6,18.9,0.8,26.3c0,5.8,2.5,10.7,6.6,15.6c9,7.4,18.1,15.6,28,24.7
	c9.9,9,19.7,17.3,29.6,24.7c10.7,10.7,24.7,20.6,41.9,31.3c5.8,3.3,12.3,6.6,19.7,9.9c7.4,3.3,14.8,4.1,22.2,0.8
	c3.3,0,6.6-2.5,10.7-6.6c23-22.2,46.9-43.6,70.7-65.8c2.5,10.7,6.6,22.2,13.2,32.9c14.8,20.6,34.5,34.5,58.4,41.9
	c24.7,7.4,47.7,10.7,69.9,10.7c51,1.6,98.7-5.8,142.3-22.2l0.8,0.8l3.3-2.5c0,0,140.6-62.5,237.7-111c-1.6,7.4-3.3,14.8-3.3,21.4
	c-0.8,20.6,4.9,40.3,16.4,60c14.8,20.6,34.5,34.5,58.4,41.9c24.7,7.4,47.7,10.7,69.9,10.7c52.6,1.6,102-6.6,147.2-23
	c45.2-17.3,85.5-40.3,122.5-70.7c37-30.4,69.9-65,100.3-103.6s57.6-79.8,83.1-122.5c20.6-37,40.3-74.8,58.4-113.5
	c18.1-38.7,35.4-78.1,51.8-118.4c14.8-32.1,28.8-66.6,41.9-103.6c10.7-28,23-57.6,37.8-88c16.4-7.4,32.9-14,49.3-21.4
	c17.3-6.6,34.5-14,51.8-21.4c26.3-7.4,50.2-16.4,70.7-26.3c9-3.3,20.6-8.2,34.5-16.4c14-8.2,22.2-17.3,25.5-28
	C3921.2,898.1,3919.5,890.7,3913.8,883.3"/>
</svg>
