<?xml version="1.0" encoding="utf-8"?>
<!-- Generator: Adobe Illustrator 25.2.2, SVG Export Plug-In . SVG Version: 6.00 Build 0)  -->
<svg version="1.1" id="Capa_1" xmlns="http://www.w3.org/2000/svg" xmlns:xlink="http://www.w3.org/1999/xlink" x="0px" y="0px"
	 viewBox="0 0 4270.7 4101.2" style="enable-background:new 0 0 4270.7 4101.2;" xml:space="preserve">
<style type="text/css">
	.st0{fill:#F1AB25;}
</style>
<g>
	<g>
		<path class="st0" d="M2536.3,2513.9c-177.5,0-323.3,143.4-323.3,323.3c0,177.5,143.4,323.3,323.3,323.3
			c177.5,0,323.3-143.4,323.3-323.3C2856.6,2659.8,2713.8,2513.9,2536.3,2513.9z"/>
	</g>
</g>
<g>
	<g>
		<path class="st0" d="M3105.8,970.1c-6.1,0-15.8-3-24.9-3H1120.2l-31-208.5c-18.8-136.8-136.8-239.5-276.5-239.5H560.4
			c-68.7,0-124.6,55.9-124.6,124s55.9,124.6,124.6,124.6h252.2c15.8,0,28,12.2,31,28l192.7,1313.4
			c24.9,164.7,167.7,289.3,336.1,289.3H2667c161.7,0,302.1-114.9,336.1-274.1L3205.5,1113C3217.6,1047.9,3174.5,982.9,3105.8,970.1z
			"/>
	</g>
</g>
<g>
	<g>
		<path class="st0" d="M1742.5,2821.4c-6.1-171.4-149.5-308.1-320.3-308.1c-180.5,9.1-317.3,158.6-311.2,336.1
			c6.1,171.4,146.5,308.1,317.3,308.1h6.1C1611.9,3148.4,1752.3,2998.9,1742.5,2821.4z"/>
	</g>
</g>
</svg>
