<?xml version="1.0" encoding="utf-8"?>
<!-- Generator: Adobe Illustrator 25.2.2, SVG Export Plug-In . SVG Version: 6.00 Build 0)  -->
<svg version="1.1" id="Calque_1" xmlns="http://www.w3.org/2000/svg" xmlns:xlink="http://www.w3.org/1999/xlink" x="0px" y="0px"
	 viewBox="0 0 4680.8 4302.7" style="enable-background:new 0 0 4680.8 4302.7;" xml:space="preserve">
<path d="M2224.4,1841.2L3243.2,822.4c66.3-66.3,66.3-173.4,0-239.7c-66.3-66.3-173.4-66.3-239.7,0L1984.7,1601.5L965.9,582.7
	c-66.3-66.3-173.4-66.3-239.7,0c-66.3,66.3-66.3,173.4,0,239.7L1745,1841.2L726.2,2860c-66.3,66.3-66.3,173.4,0,239.7
	c33,33.1,76.5,49.7,119.8,49.7s86.8-16.6,119.8-49.7l1018.8-1018.8l1018.8,1018.8c33.1,33.1,76.5,49.7,119.8,49.7
	c43.4,0,86.8-16.6,119.8-49.7c66.3-66.3,66.3-173.4,0-239.7L2224.4,1841.2z"/>
</svg>
