<?xml version="1.0" encoding="utf-8"?>
<!-- Generator: Adobe Illustrator 25.2.2, SVG Export Plug-In . SVG Version: 6.00 Build 0)  -->
<svg version="1.1" id="Layer_1" xmlns="http://www.w3.org/2000/svg" xmlns:xlink="http://www.w3.org/1999/xlink" x="0px" y="0px"
	 viewBox="0 0 4014 4018.4" style="enable-background:new 0 0 4014 4018.4;" xml:space="preserve">
<style type="text/css">
	.st0{fill:#F8AE47;stroke:#F8AE47;stroke-width:12;stroke-miterlimit:10;}
</style>
<g>
	<g>
		<path class="st0" d="M3292.2,3170.3h-120.5V1417.6c0-81.4-66.6-148-148-148H2754c-81.4,0-148,66.6-148,148v1752.8h-306.5v-958.7
			c0-81.4-66.6-148-148-148h-269.7c-81.4,0-148,66.6-148,148v958.7h-306.5V2674c0-81.4-66.6-148-148-148h-269.7
			c-81.4,0-148,66.6-148,148v496.4H734.3c-30.3,0-55,24.8-55,55c0,30.3,24.8,55,55,55h2557.9c30.3,0,55-24.8,55-55
			C3347.3,3195.1,3322.5,3170.3,3292.2,3170.3z M1317.1,3170.3H971.5V2674c0-20.9,17.1-38,38-38h269.7c20.9,0,38,17.1,38,38V3170.3
			L1317.1,3170.3z M2189.4,3170.3h-345.6v-958.7c0-20.9,17.1-38,38-38h269.7c20.9,0,38,17.1,38,38L2189.4,3170.3L2189.4,3170.3z
			 M3061.7,3170.3H2716V1417.6c0-20.9,17.1-38,38-38h269.7c20.9,0,38,17.1,38,38V3170.3L3061.7,3170.3z"/>
	</g>
</g>
<g>
	<g>
		<path class="st0" d="M3171.2,520.6c0.6-14.9-4.4-30.3-16-41.8c-11.6-11.6-27-16.5-41.8-16c-1.1,0-1.7,0-2.8,0h-332.4
			c-30.3,0-55,24.8-55,55c0,30.3,24.8,55,55,55h205.8l-544.3,544.3l-205.3-205.3c-10.5-10.5-24.2-16-39.1-16
			c-14.9,0-28.6,6.1-39.1,16l-988.9,988.9c-21.5,21.5-21.5,56.1,0,77.6c11,11,24.8,16,39.1,16s28.1-5.5,39.1-16l950.4-950.4
			l205.3,205.3c21.5,21.5,56.1,21.5,77.6,0l582.8-582.8V837c0,30.3,24.8,55,55,55s55-24.8,55-55V523.3
			C3171.7,522.2,3171.2,521.7,3171.2,520.6z"/>
	</g>
</g>
<g>
	<g>
		<circle class="st0" cx="1020.5" cy="2131.9" r="55"/>
	</g>
</g>
</svg>
