<?xml version="1.0" encoding="utf-8"?>
<!-- Generator: Adobe Illustrator 25.2.2, SVG Export Plug-In . SVG Version: 6.00 Build 0)  -->
<svg version="1.1" id="Calque_1" xmlns="http://www.w3.org/2000/svg" xmlns:xlink="http://www.w3.org/1999/xlink" x="0px" y="0px"
	 viewBox="0 0 3078.9 2092.7" style="enable-background:new 0 0 3078.9 2092.7;" xml:space="preserve">
<style type="text/css">
	.st0{display:none;}
	.st1{fill:#F8AE47;}
</style>
<g id="Gm5GmE_1_" class="st0">
</g>
<path class="st1" d="M2324.1,1696.3H633.3c-16.9,0-30.5-13.7-30.5-30.5s13.7-30.5,30.5-30.5h1690.8c16.9,0,30.5,13.7,30.5,30.5
	S2341,1696.3,2324.1,1696.3z"/>
<path class="st1" d="M2093.7,1546.7H855.3c-16.2,0-29.6-12.7-30.5-28.9c-0.7-12-13.9-297.1,173.4-495.1
	c113.4-119.9,275.1-180.8,480.4-181.1c315.1,0,474.2,184.2,552.2,338.8c83.2,164.8,92.9,327.3,93.3,334.1c0.5,8.4-2.5,16.6-8.3,22.6
	C2110.1,1543.3,2102.1,1546.7,2093.7,1546.7z M885.7,1485.7h1174.2c-7-53.9-27.5-167.4-84.3-279.4
	c-102.3-201.4-269.5-303.6-496.9-303.6c-187.9,0.2-334.7,54.7-436.1,162C905.9,1209.2,887.6,1411.4,885.7,1485.7z"/>
<path class="st1" d="M1641.3,922.6c-11.4,0-22.3-6.4-27.5-17.3c-28.6-59.3-62.6-92.6-86.1-110.1c-27.9-20.6-65.3-21.9-95.4-3.2
	c-62.3,38.6-71.8,95.2-72.2,97.6c-2.6,16.5-17.9,28.1-34.6,25.6c-16.6-2.4-28.1-17.6-25.8-34.2c0.5-3.5,12.9-86.6,100.4-140.8
	c51.4-32,115.8-29.7,163.9,6c42.2,31.4,77.5,76,104.7,132.6c7.3,15.2,0.9,33.4-14.3,40.7C1650.2,921.6,1645.7,922.6,1641.3,922.6z"
	/>
<path class="st1" d="M2411.9,1168.3c-192.3,0-348.7-156.4-348.7-348.7c0-192.3,156.4-348.7,348.7-348.7
	c192.3,0,348.7,156.4,348.7,348.7C2760.6,1011.9,2604.1,1168.3,2411.9,1168.3z M2411.9,531.9c-158.6,0-287.7,129-287.7,287.7
	c0,158.6,129,287.7,287.7,287.7s287.7-129,287.7-287.7C2699.5,661,2570.5,531.9,2411.9,531.9z"/>
<g>
	<path class="st1" d="M2456.9,744.8c0-29.8-24.4-49.6-65.6-49.6c-37.4,0-64.1,13-82.4,36.6l-33.6-23.7c25.2-32.8,65.6-51.9,119-51.9
		c66.4,0,109.1,30.5,109.1,81.6c0,77.1-81.6,81.6-81.6,142.7H2376C2376,808.1,2456.9,797.5,2456.9,744.8z M2369.1,955.4
		c0-16.8,12.2-29.8,29.8-29.8c16.8,0,29.8,13,29.8,29.8c0,16-12.2,29.8-29.8,29.8C2382.1,984.4,2369.1,971.4,2369.1,955.4z"/>
</g>
</svg>
