<?xml version="1.0" encoding="utf-8"?>
<!-- Generator: Adobe Illustrator 25.2.2, SVG Export Plug-In . SVG Version: 6.00 Build 0)  -->
<svg version="1.1" xmlns="http://www.w3.org/2000/svg" xmlns:xlink="http://www.w3.org/1999/xlink" x="0px" y="0px"
	 viewBox="0 0 223.6 251.9" style="enable-background:new 0 0 223.6 251.9;" xml:space="preserve">
<style type="text/css">
	.st0{display:none;}
	.st1{display:inline;fill:none;stroke:#FBAE46;stroke-width:8;stroke-linecap:round;stroke-linejoin:round;stroke-miterlimit:10;}
	.st2{display:inline;fill:#FBAE46;}
	.st3{fill:#FBAE46;}
</style>
<g id="Calque_2">
</g>
<g id="Calque_3" class="st0">
	<circle class="st1" cx="116.3" cy="77.7" r="61.8"/>
	<path class="st1" d="M93.7,104.1c0,0,21.5,13.5,43.1,1.1"/>
	<path class="st2" d="M149.1,98.8c1-1.3,0.7-3.1-0.6-4.1c-1.3-1-3.1-0.7-4.1,0.6c-0.5,0.7-1,1.3-1.5,1.9c-1,1.2-0.8,2.9,0.3,3.9
		c0,0,0.1,0.1,0.2,0.1c1.2,1,3.1,0.8,4.1-0.4C148,100.2,148.6,99.5,149.1,98.8z"/>
	<path class="st1" d="M167.1,145.1c-1.4-2.9-3.9-4.9-6.8-5.5C149,151,133.5,158,116.3,158c-17.3,0-32.9-7.1-44.1-18.6
		c-3.7,0-7,2.2-8.7,5.7l-6.2,18.5c-3.5,11.6-5.1,25.3,1.2,36.4l4.9,8.6c1.8,3.2,5,5.1,8.5,5.1h42.7h1.6h42.7c3.5,0,6.7-1.9,8.5-5.1
		l4.9-8.6c6.3-11.1,4.6-25.1,1.2-36.4L167.1,145.1z"/>
</g>
<g id="Calque_4">
	<path class="st3" d="M116.3,15.9c-34.1,0-61.8,27.6-61.8,61.8c0,34.1,27.6,61.8,61.8,61.8c34.1,0,61.8-27.6,61.8-61.8
		C178.1,43.5,150.4,15.9,116.3,15.9z M138.3,107.8c-7.3,4.2-14.6,5.7-21.2,5.7c-13.8,0-24.3-6.4-25-6.8c-1.4-0.9-1.8-2.7-0.9-4.1
		c0.9-1.4,2.7-1.8,4.1-1c0.3,0.2,20.4,12.3,40,1c1.4-0.8,3.3-0.3,4.1,1.1C140.2,105.2,139.7,107,138.3,107.8z M149.1,98.8
		c-0.5,0.7-1.1,1.4-1.7,2.2c-1,1.2-2.8,1.4-4.1,0.4c-0.1,0-0.1-0.1-0.2-0.1c-1.1-1-1.2-2.8-0.3-3.9c0.5-0.6,1-1.3,1.5-1.9
		c1-1.3,2.8-1.6,4.1-0.6C149.8,95.7,150,97.5,149.1,98.8z"/>
	<path class="st3" d="M168.1,136c-1.4-2.9-3.9-4.9-6.8-5.5c-11.2,11.3-26.7,18.4-43.9,18.4c-17.3,0-32.9-7.1-44.1-18.6
		c-3.7,0-7,2.2-8.7,5.7l-6.2,18.5c-3.5,11.6-5.1,25.3,1.2,36.4l4.9,8.6c1.8,3.2,5,5.1,8.5,5.1h42.7h1.6h42.7c3.5,0,6.7-1.9,8.5-5.1
		l4.9-8.6c6.3-11.1,4.6-25.1,1.2-36.4L168.1,136z"/>
</g>
</svg>
